<svg width="1280" height="720" xmlns="http://www.w3.org/2000/svg" xmlns:xlink="http://www.w3.org/1999/xlink" overflow="hidden"><defs><clipPath id="clip0"><rect x="0" y="0" width="1280" height="720"/></clipPath></defs><g clip-path="url(#clip0)"><rect x="0" y="0" width="1280" height="720" fill="#FFFFFF"/><text font-family="Times New Roman,Times New Roman_MSFontService,sans-serif" font-style="italic" font-weight="700" font-size="16" transform="translate(263.381 428)">Current Vx</text><text font-family="Times New Roman,Times New Roman_MSFontService,sans-serif" font-style="italic" font-weight="700" font-size="16" transform="translate(258.888 335)">Target Vx</text><rect x="41.5001" y="153.5" width="205" height="48" stroke="#000000" stroke-width="1.33333" stroke-miterlimit="8" fill="#CCD3DC"/><text font-family="Calibri,Calibri_MSFontService,sans-serif" font-weight="400" font-size="24" transform="translate(54.1854 185)">/torque/limitation</text><path d="M245.5 176 289.197 176 289.197 179 245.5 179ZM287.697 173 296.697 177.5 287.697 182Z"/><path d="M312.173 151 386.5 151C400.583 151 412 162.417 412 176.5L412 187.827C412 195.654 405.654 202 397.827 202L323.5 202C309.417 202 298 190.583 298 176.5L298 165.173C298 157.346 304.346 151 312.173 151Z" fill="#D9D9D9" fill-rule="evenodd"/><text font-family="Times New Roman,Times New Roman_MSFontService,sans-serif" font-style="italic" font-weight="700" font-size="21" transform="translate(319.852 185)">trq</text><text font-family="Times New Roman,Times New Roman_MSFontService,sans-serif" font-style="italic" font-weight="700" font-size="21" transform="translate(350.185 185)">to</text><text font-family="Times New Roman,Times New Roman_MSFontService,sans-serif" font-style="italic" font-weight="700" font-size="21" transform="translate(372.185 185)">a</text><text font-family="Times New Roman,Times New Roman_MSFontService,sans-serif" font-style="italic" font-weight="700" font-size="14" transform="translate(382.852 189)">x</text><path d="M0.0104272-1.49996 85.9492-0.902547 85.9283 2.09738-0.0104272 1.49996ZM84.4701-3.9129 93.4386 0.649554 84.4076 5.08688Z" transform="matrix(1 0 0 -1 412.5 179.15)"/><text font-family="Times New Roman,Times New Roman_MSFontService,sans-serif" font-style="italic" font-weight="700" font-size="16" transform="translate(430.117 169)">Max A</text><text font-family="Times New Roman,Times New Roman_MSFontService,sans-serif" font-style="italic" font-weight="700" font-size="11" transform="translate(474.357 172)">x</text><path d="M506.5 158.333C506.5 152.903 510.903 148.5 516.333 148.5L652.667 148.5C658.097 148.5 662.5 152.903 662.5 158.333L662.5 197.667C662.5 203.097 658.097 207.5 652.667 207.5L516.333 207.5C510.903 207.5 506.5 203.097 506.5 197.667Z" stroke="#000000" stroke-width="1.33333" stroke-miterlimit="8" fill="#FFFFFF" fill-rule="evenodd"/><text font-family="Times New Roman,Times New Roman_MSFontService,sans-serif" font-style="italic" font-weight="700" font-size="24" transform="translate(528.657 188)">Update</text><text font-family="Times New Roman,Times New Roman_MSFontService,sans-serif" font-weight="400" font-size="27" transform="translate(605.99 188)">Kp</text><rect x="77.5001" y="327.5" width="168" height="48" stroke="#000000" stroke-width="1.33333" stroke-miterlimit="8" fill="#CCD3DC"/><text font-family="Calibri,Calibri_MSFontService,sans-serif" font-weight="400" font-size="24" transform="translate(91.8979 350)">/planner/path</text><text font-family="Times New Roman,Times New Roman_MSFontService,sans-serif" font-style="italic" font-weight="400" font-size="15" transform="translate(145.705 371)">40Hz</text><path d="M245.5 348 332.886 348 332.886 351 245.5 351ZM331.386 345 340.386 349.5 331.386 354Z"/><path d="M342.5 356.5C342.5 349.32 348.768 343.5 356.5 343.5 364.232 343.5 370.5 349.32 370.5 356.5 370.5 363.68 364.232 369.5 356.5 369.5 348.768 369.5 342.5 363.68 342.5 356.5Z" stroke="#000000" stroke-width="1.33333" stroke-miterlimit="8" fill="none" fill-rule="evenodd"/><path d="M334.753 333.501 339.001 333.501 339.001 328.886 342.999 328.886 342.999 333.501 347.247 333.501 347.247 337.499 342.999 337.499 342.999 342.114 339.001 342.114 339.001 337.499 334.753 337.499Z" stroke="#000000" stroke-miterlimit="8" fill="none" fill-rule="evenodd"/><rect x="333.753" y="372.001" width="12.4933" height="3.99841" stroke="#000000" stroke-width="0.333333" stroke-miterlimit="8" fill="none"/><path d="M373.5 348 460.43 348 460.43 351 373.5 351ZM458.93 345 467.93 349.5 458.93 354Z"/><path d="M542.5 262.834C542.5 258.231 546.231 254.5 550.834 254.5L616.167 254.5C620.769 254.5 624.5 258.231 624.5 262.834L624.5 296.167C624.5 300.769 620.769 304.5 616.167 304.5L550.834 304.5C546.231 304.5 542.5 300.769 542.5 296.167Z" stroke="#000000" stroke-width="1.33333" stroke-miterlimit="8" fill="#FFFFFF" fill-rule="evenodd"/><text font-family="Times New Roman,Times New Roman_MSFontService,sans-serif" font-weight="700" font-size="24" transform="translate(575.834 287)">P</text><rect x="1009.5" y="309.5" width="177" height="78" stroke="#000000" stroke-width="1.33333" stroke-miterlimit="8" fill="#ADB9CA"/><text font-family="Times New Roman,Times New Roman_MSFontService,sans-serif" font-weight="400" font-size="24" transform="translate(1045.59 342)">Low Level</text><text font-family="Times New Roman,Times New Roman_MSFontService,sans-serif" font-weight="400" font-size="24" transform="translate(1022.26 371)">Control module</text><path d="M822.5 348.5 997.5 348.5 997.5 343.5 1007.5 353.5 997.5 363.5 997.5 358.5 822.5 358.5Z" stroke="#000000" stroke-width="1.33333" stroke-miterlimit="8" fill-rule="evenodd"/><text font-family="Times New Roman,Times New Roman_MSFontService,sans-serif" font-style="italic" font-weight="700" font-size="19" transform="translate(840.122 319)">Throttle commands</text><text font-family="Times New Roman,Times New Roman_MSFontService,sans-serif" font-style="italic" font-weight="400" font-size="15" transform="translate(887.956 338)">(+40 Hz)</text><rect x="69.5001" y="414.5" width="176" height="47" stroke="#000000" stroke-width="1.33333" stroke-miterlimit="8" fill="#CCD3DC"/><text font-family="Calibri,Calibri_MSFontService,sans-serif" font-weight="400" font-size="24" transform="translate(81.7721 436)">/</text><text font-family="Calibri,Calibri_MSFontService,sans-serif" font-weight="400" font-size="24" transform="translate(90.6921 436)">odom</text><text font-family="Calibri,Calibri_MSFontService,sans-serif" font-weight="400" font-size="24" transform="translate(147.859 436)">/velocity</text><text font-family="Times New Roman,Times New Roman_MSFontService,sans-serif" font-style="italic" font-weight="400" font-size="15" transform="translate(137.945 457)">200Hz</text><path d="M0-1.5 112.634-1.5 112.634 61.0235 109.634 61.0235 109.634 0 111.134 1.5 0 1.5ZM115.634 59.5235 111.134 68.5235 106.634 59.5235Z" transform="matrix(1 0 0 -1 245.5 438.024)"/><path d="M1.49992-0.0156548 1.9113 39.3999-1.08853 39.4312-1.49992 0.0156548ZM4.89548 37.8687 0.489659 46.9152-4.10402 37.9626Z" transform="matrix(-1 0 0 1 583.99 207.5)"/><text font-family="Cambria Math,Cambria Math_MSFontService,sans-serif" font-weight="400" font-size="24" transform="translate(1025.47 491)">Î“</text><text font-family="Cambria Math,Cambria Math_MSFontService,sans-serif" font-weight="400" font-size="18" transform="translate(1035.68 496)">ğ¹ğ¿</text><text font-family="Cambria Math,Cambria Math_MSFontService,sans-serif" font-weight="400" font-size="24" transform="translate(1057.64 491)">,</text><text font-family="Cambria Math,Cambria Math_MSFontService,sans-serif" font-weight="400" font-size="24" transform="translate(1066.64 491)">Î“</text><text font-family="Cambria Math,Cambria Math_MSFontService,sans-serif" font-weight="400" font-size="18" transform="translate(1076.85 496)">ğ¹</text><text font-family="Cambria Math,Cambria Math_MSFontService,sans-serif" font-weight="400" font-size="18" transform="translate(1087.85 496)">ğ‘…</text><text font-family="Cambria Math,Cambria Math_MSFontService,sans-serif" font-weight="400" font-size="24" transform="translate(1100.87 491)">,</text><text font-family="Cambria Math,Cambria Math_MSFontService,sans-serif" font-weight="400" font-size="24" transform="translate(1109.87 491)">Î“</text><text font-family="Cambria Math,Cambria Math_MSFontService,sans-serif" font-weight="400" font-size="18" transform="translate(1120.07 496)">ğ‘…</text><text font-family="Cambria Math,Cambria Math_MSFontService,sans-serif" font-weight="400" font-size="18" transform="translate(1131.57 496)">ğ¿</text><text font-family="Cambria Math,Cambria Math_MSFontService,sans-serif" font-weight="400" font-size="24" transform="translate(1142.53 491)">,</text><text font-family="Cambria Math,Cambria Math_MSFontService,sans-serif" font-weight="400" font-size="24" transform="translate(1151.53 491)">Î“</text><text font-family="Cambria Math,Cambria Math_MSFontService,sans-serif" font-weight="400" font-size="18" transform="translate(1161.74 496)">ğ‘…ğ‘…</text><path d="M1105 387.5 1105 449.5 1111.5 449.5 1098.5 462.5 1085.5 449.5 1092 449.5 1092 387.5Z" stroke="#000000" stroke-width="1.33333" stroke-miterlimit="8" fill-rule="evenodd"/><text font-family="Times New Roman,Times New Roman_MSFontService,sans-serif" font-style="italic" font-weight="700" font-size="19" transform="translate(1122.41 428)">Final torque</text><text font-family="Times New Roman,Times New Roman_MSFontService,sans-serif" font-style="italic" font-weight="700" font-size="19" transform="translate(1129.41 450)">commands</text><path d="M540.5 335.834C540.5 331.231 544.231 327.5 548.834 327.5L614.167 327.5C618.769 327.5 622.5 331.231 622.5 335.834L622.5 369.167C622.5 373.769 618.769 377.5 614.167 377.5L548.834 377.5C544.231 377.5 540.5 373.769 540.5 369.167Z" stroke="#000000" stroke-width="1.33333" stroke-miterlimit="8" fill="#FFFFFF" fill-rule="evenodd"/><text font-family="Times New Roman,Times New Roman_MSFontService,sans-serif" font-weight="700" font-size="24" transform="translate(576.679 360)">I</text><path d="M540.5 496C540.5 491.306 544.306 487.5 549 487.5L614 487.5C618.694 487.5 622.5 491.306 622.5 496L622.5 530C622.5 534.694 618.694 538.5 614 538.5L549 538.5C544.306 538.5 540.5 534.694 540.5 530Z" stroke="#000000" stroke-width="1.33333" stroke-miterlimit="8" fill="#FFFFFF" fill-rule="evenodd"/><text font-family="Times New Roman,Times New Roman_MSFontService,sans-serif" font-weight="700" font-size="27" transform="translate(571.679 522)">D</text><path d="M470.5 356.5C470.5 349.32 476.768 343.5 484.5 343.5 492.232 343.5 498.5 349.32 498.5 356.5 498.5 363.68 492.232 369.5 484.5 369.5 476.768 369.5 470.5 363.68 470.5 356.5Z" stroke="#000000" stroke-width="1.33333" stroke-miterlimit="8" fill="none" fill-rule="evenodd"/><path d="M461.753 333.501 466.001 333.501 466.001 328.886 469.999 328.886 469.999 333.501 474.247 333.501 474.247 337.499 469.999 337.499 469.999 342.114 466.001 342.114 466.001 337.499 461.753 337.499Z" stroke="#000000" stroke-miterlimit="8" fill="none" fill-rule="evenodd"/><path d="M459.753 372.001 464.001 372.001 464.001 367.753 467.999 367.753 467.999 372.001 472.247 372.001 472.247 375.999 467.999 375.999 467.999 380.247 464.001 380.247 464.001 375.999 459.753 375.999Z" stroke="#000000" stroke-miterlimit="8" fill="none" fill-rule="evenodd"/><path d="M0-1.5 1.82556-1.5 1.82556 69.8559 0.325565 68.3559 121.708 68.3559 121.708 71.3559-1.17444 71.3559-1.17444 0 0.325565 1.5 0 1.5ZM120.209 65.3559 129.208 69.8559 120.209 74.3559Z" transform="matrix(1 0 0 -1 413.5 349.356)"/><path d="M0-1.5 163.845-1.5 163.845 119.887 160.845 119.887 160.845 0 162.345 1.5 0 1.5ZM166.845 118.387 162.345 127.387 157.845 118.387Z" transform="matrix(1.83697e-16 1 1 -1.83697e-16 413.5 350.5)"/><path d="M501.5 347 533.144 347 533.144 350 501.5 350ZM531.644 344 540.644 348.5 531.644 353Z"/><rect x="721.5" y="312.5" width="100" height="86" stroke="#000000" stroke-width="0.666667" stroke-miterlimit="8" fill="#FFFFFF"/><path d="M771.5 327.5 771.5 386.495" stroke="#000000" stroke-width="1.33333" stroke-miterlimit="8" fill="none" fill-rule="evenodd"/><path d="M737.5 355.5 806.057 355.5" stroke="#000000" stroke-width="1.33333" stroke-miterlimit="8" fill="none" fill-rule="evenodd"/><path d="M737 377 755.926 377" stroke="#FF0000" stroke-width="2" stroke-miterlimit="8" fill="none" fill-rule="evenodd"/><path d="M786 333 802.543 333" stroke="#FF0000" stroke-width="2" stroke-miterlimit="8" fill="none" fill-rule="evenodd"/><path d="M0 0 30.5082 43.2418" stroke="#FF0000" stroke-width="2" stroke-miterlimit="8" fill="none" fill-rule="evenodd" transform="matrix(1 0 0 -1 756 376.242)"/><path d="M622.51 348 638.714 348.112 638.694 351.112 622.49 351ZM637.235 345.102 646.204 349.663 637.173 354.101Z"/><path d="M748.5 436.5C748.5 429.32 754.768 423.5 762.5 423.5 770.232 423.5 776.5 429.32 776.5 436.5 776.5 443.68 770.232 449.5 762.5 449.5 754.768 449.5 748.5 443.68 748.5 436.5Z" stroke="#000000" stroke-width="1.33333" stroke-miterlimit="8" fill="none" fill-rule="evenodd"/><path d="M777.753 423.001 782.001 423.001 782.001 418.753 785.999 418.753 785.999 423.001 790.247 423.001 790.247 426.999 785.999 426.999 785.999 431.247 782.001 431.247 782.001 426.999 777.753 426.999Z" stroke="#000000" stroke-miterlimit="8" fill="none" fill-rule="evenodd"/><rect x="735.753" y="423.001" width="12.4933" height="3.99841" stroke="#000000" stroke-width="0.333333" stroke-miterlimit="8" fill="none"/><path d="M844.378 358.5 844.378 438.695 784 438.695 784 435.695 842.878 435.695 841.378 437.195 841.378 358.5ZM785.5 441.695 776.5 437.195 785.5 432.695Z"/><path d="M0-1.5 89.744-1.5 89.744 49.9901 86.744 49.9901 86.744 0 88.244 1.5 0 1.5ZM92.744 48.4901 88.244 57.4901 83.744 48.4901Z" transform="matrix(1.83697e-16 1 1 -1.83697e-16 691.5 348.5)"/><rect x="499.5" y="442.5" width="56" height="29" stroke="#000000" stroke-width="0.666667" stroke-miterlimit="8" fill="#FFFFFF"/><text font-family="Times New Roman,Times New Roman_MSFontService,sans-serif" font-style="italic" font-weight="700" font-size="19" transform="translate(513.491 463)">K</text><text font-family="Times New Roman,Times New Roman_MSFontService,sans-serif" font-style="italic" font-weight="700" font-size="12" transform="translate(525.991 467)">aw</text><path d="M764.263 449.5 764.263 457.92 563 457.92 563 454.92 762.763 454.92 761.263 456.42 761.263 449.5ZM564.5 460.92 555.5 456.42 564.5 451.92Z"/><path d="M499.435 457.797 480 457.797 480 380 483 380 483 456.297 481.5 454.797 499.435 454.797ZM477 381.5 481.5 372.5 486 381.5Z"/><path d="M647.5 355.5C647.5 348.32 653.768 342.5 661.5 342.5 669.232 342.5 675.5 348.32 675.5 355.5 675.5 362.68 669.232 368.5 661.5 368.5 653.768 368.5 647.5 362.68 647.5 355.5Z" stroke="#000000" stroke-width="1.33333" stroke-miterlimit="8" fill="none" fill-rule="evenodd"/><path d="M639.753 332.001 644.001 332.001 644.001 327.753 647.999 327.753 647.999 332.001 652.247 332.001 652.247 335.999 647.999 335.999 647.999 340.247 644.001 340.247 644.001 335.999 639.753 335.999Z" stroke="#000000" stroke-miterlimit="8" fill="none" fill-rule="evenodd"/><path d="M667.753 321.001 672.001 321.001 672.001 316.753 675.999 316.753 675.999 321.001 680.247 321.001 680.247 324.999 675.999 324.999 675.999 329.247 672.001 329.247 672.001 324.999 667.753 324.999Z" stroke="#000000" stroke-miterlimit="8" fill="none" fill-rule="evenodd"/><path d="M638.753 371.001 643.001 371.001 643.001 366.753 646.999 366.753 646.999 371.001 651.247 371.001 651.247 374.999 646.999 374.999 646.999 379.247 643.001 379.247 643.001 374.999 638.753 374.999Z" stroke="#000000" stroke-miterlimit="8" fill="none" fill-rule="evenodd"/><path d="M624.5 278 662.316 278 662.316 334.991 659.316 334.991 659.316 279.5 660.816 281 624.5 281ZM665.316 333.491 660.816 342.491 656.316 333.491Z"/><path d="M0 0 39.8439 0 39.8439 40.1805 40.2062 40.1805" stroke="#000000" stroke-width="3" stroke-miterlimit="8" fill="none" fill-rule="evenodd" transform="matrix(1 0 0 -1 622.5 512.681)"/><path d="M662.049 472.598C653.917 466.452 650.974 455.085 655.475 447.21 657.134 444.307 659.668 442.165 662.739 441.07" stroke="#000000" stroke-width="3" stroke-miterlimit="8" fill="none" fill-rule="evenodd"/><path d="M1.5-2.16903e-06 1.50009 65.1039-1.49991 65.1039-1.5 2.16903e-06ZM4.50009 63.6039 0.000104987 72.6039-4.49991 63.6039Z" transform="matrix(1 0 0 -1 662.5 442.104)"/><path d="M0.00322586-1.5 34.4378-1.42594 34.4314 1.57405-0.00322586 1.5ZM32.9443-4.42916 41.9346 0.0901837 32.9249 4.57082Z" transform="matrix(1 0 0 -1 677.5 347.59)"/></g></svg>